<?xml version="1.0" encoding="UTF-8"?><svg id="Layer_1" xmlns="http://www.w3.org/2000/svg" width="359.467" height="118.305" viewBox="0 0 359.467 118.305"><defs><style>.cls-1{fill:#120a2d;}</style></defs><path class="cls-1" d="M45.662,79.425c7.438-.458,14.763-1.03,21.858-2.06l1.374,13.275c-22.316,4.463-46.12,4.463-63.858,4.463l-2.174-14.763c7.21,0,15.564,0,24.262-.229v-7.782c-10.529-2.518-17.509-9.842-17.395-19.226,0-12.016,11.215-20.371,26.779-20.371s26.779,8.354,26.779,20.371c0,9.384-6.981,16.708-17.624,19.226v7.095Zm21.973-49.782H5.035V15.338H27.123V4.924h18.54V15.338h21.973v14.305ZM27.237,53.104c0,4.578,3.662,6.638,9.27,6.638s9.27-2.06,9.27-6.638c0-4.463-3.662-6.523-9.27-6.523s-9.27,2.06-9.27,6.523Zm75.417,8.697h-11.787v49.668h-18.54V4.238h18.54V46.695h11.787v15.106Z"/><path class="cls-1" d="M168.917,50.014c0,24.033-12.245,38.91-28.725,38.91s-28.725-14.877-28.725-38.91,12.245-38.91,28.725-38.91,28.725,14.877,28.725,38.91Zm-39.711,0c0,15.106,4.349,22.087,10.986,22.087s10.986-6.981,10.986-22.087-4.349-22.087-10.986-22.087-10.986,6.98-10.986,22.087ZM198.672,3.895V111.926h-18.539V3.895h18.539Z"/><path class="cls-1" d="M279.699,62.717c-14.878,2.289-28.725,2.518-50.812,2.518h-9.499V11.448h52.07v14.419h-33.646v5.378h30.327v14.076h-30.327v5.608c16.479-.115,27.695-.572,40.169-2.518l1.717,14.305Zm24.376,28.152c0,13.275-14.306,20.828-37.193,20.828s-37.079-7.553-37.079-20.828,14.305-20.943,37.079-20.943,37.193,7.667,37.193,20.943Zm-18.426,0c0-5.036-6.064-6.981-18.768-6.981-12.589,0-18.654,1.945-18.654,6.981,0,4.921,6.065,6.866,18.654,6.866,12.703,0,18.768-1.945,18.768-6.866Zm17.968-22.545h-18.539V4.238h18.539V68.325Z"/><path class="cls-1" d="M325.134,89.611c0-7.096,5.036-12.589,12.017-12.589,7.096,0,12.131,5.493,12.131,12.589s-5.035,12.703-12.131,12.703c-6.98,0-12.017-5.608-12.017-12.703Zm2.519-58.479l-.688-18.196h20.485l-.687,18.196-2.976,38.681h-13.161l-2.975-38.681Z"/></svg>