<svg xmlns="http://www.w3.org/2000/svg" width="315.242" height="390.346" viewBox="0 0 315.242 390.346">
  <g id="c" transform="translate(165.105) rotate(28)">
    <g id="Group_348" data-name="Group 348" transform="translate(2.5 2.5)">
      <path id="Path_321" data-name="Path 321" d="M129.907,46.91c20.953,2.517,34.675,6.716,34.675,11.471,0,7.7-36.021,13.947-80.457,13.947S3.666,66.081,3.666,58.38c0-5.064,15.572-9.5,38.867-11.941" transform="translate(-1.604 31.28)" fill="none" stroke="#fff" stroke-miterlimit="10" stroke-width="3"/>
      <path id="Path_322" data-name="Path 322" d="M167.541,82.2c0-44.016-36.947-79.7-82.521-79.7S2.5,38.182,2.5,82.2c0,34.948,27.7,62.6,55.975,88.052a5.4,5.4,0,0,1,1.788,4.013V341.211c0,4.4,11.083,7.97,24.756,7.97s24.756-3.568,24.756-7.97V174.156a5.42,5.42,0,0,1,1.657-3.9c28.32-27.3,56.108-53.058,56.108-88.061Z" transform="translate(-2.5 -2.5)" fill="none" stroke="#fff" stroke-miterlimit="10" stroke-width="5"/>
      <path id="Path_323" data-name="Path 323" d="M35.157,124.389l5.745.978a112.46,112.46,0,0,0,37.065.119l6.7-1.1" transform="translate(22.606 91.206)" fill="none" stroke="#fff" stroke-miterlimit="10" stroke-width="3"/>
      <line id="Line_335" data-name="Line 335" y1="66.823" transform="translate(72.754 245.806)" fill="none" stroke="#fff" stroke-miterlimit="10" stroke-width="3"/>
      <g id="Group_347" data-name="Group 347" transform="translate(25.575 26.967)">
        <g id="Group_346" data-name="Group 346" transform="translate(0 0)">
          <path id="Path_324" data-name="Path 324" d="M40.03,22.36,89,44.123,105.32,74.049l1.94,2.72,6.221-8.161" transform="translate(0.778 -14.199)" fill="none" stroke="#fff" stroke-linecap="round" stroke-miterlimit="10" stroke-width="3"/>
          <path id="Path_325" data-name="Path 325" d="M16.959,72.156l8.161,8.161L63.208,17.746" transform="translate(-16.959 -17.746)" fill="none" stroke="#fff" stroke-linecap="round" stroke-miterlimit="10" stroke-width="3"/>
          <path id="Path_326" data-name="Path 326" d="M75.04,72.156,69.6,80.317,36.954,17.746" transform="translate(-1.587 -17.746)" fill="none" stroke="#fff" stroke-linecap="round" stroke-miterlimit="10" stroke-width="3"/>
          <path id="Path_327" data-name="Path 327" d="M21.573,53.121H121.45" transform="translate(-13.412 9.45)" fill="none" stroke="#fff" stroke-linecap="round" stroke-miterlimit="10" stroke-width="3"/>
        </g>
        <path id="Path_328" data-name="Path 328" d="M26.727,66.477h0A78.443,78.443,0,0,0,43.189,43.918c.3-.617.584-1.2.849-1.728l3.8-7.6a1.1,1.1,0,0,1,1.988.058l1.748,4.079c3.251,7.588,2.9,10.742,10.544,21.027a36.322,36.322,0,0,0,6.514,6.727Z" transform="translate(-9.449 -5.266)" fill="none" stroke="#fff" stroke-miterlimit="10" stroke-width="3"/>
      </g>
    </g>
  </g>
</svg>
