<?xml version="1.0" encoding="UTF-8"?><svg xmlns="http://www.w3.org/2000/svg" width="100.307" height="203" viewBox="0 0 100.307 203"><defs><style>.cls-1{fill:#fff;}.cls-2{stroke-width:5px;}.cls-2,.cls-3,.cls-4{fill:none;}.cls-2,.cls-3,.cls-4,.cls-5{stroke:#120a2d;stroke-miterlimit:10;}.cls-3{stroke-linecap:round;}.cls-3,.cls-4{stroke-width:3px;}.cls-5{fill:#120a2d;}</style></defs><g id="Layer_5"><g><path class="cls-1" d="M76.239,47.62c11.846,1.423,19.604,3.797,19.604,6.485,0,4.355-20.365,7.885-45.487,7.885s-45.487-3.53-45.487-7.885c0-2.863,8.804-5.37,21.974-6.751"/><path class="cls-1" d="M97.009,48.472c0-24.885-20.888-45.057-46.654-45.057S3.702,23.588,3.702,48.472c0,19.758,15.661,35.389,31.646,49.781,.644,.58,1.011,1.403,1.011,2.269v94.386c0,2.488,6.266,4.506,13.996,4.506s13.996-2.017,13.996-4.506V100.462c0-.831,.339-1.627,.937-2.204,16.011-15.432,31.721-29.997,31.721-49.786Z"/></g></g><g id="Layer_2"><g><path class="cls-4" d="M76.239,47.62c11.846,1.423,19.604,3.797,19.604,6.485,0,4.355-20.365,7.885-45.487,7.885s-45.487-3.53-45.487-7.885c0-2.863,8.804-5.37,21.974-6.751"/><path class="cls-2" d="M97.009,48.472c0-24.885-20.888-45.057-46.654-45.057S3.702,23.588,3.702,48.472c0,19.758,15.661,35.389,31.646,49.781,.644,.58,1.011,1.403,1.011,2.269v94.386c0,2.488,6.266,4.506,13.996,4.506s13.996-2.017,13.996-4.506V100.462c0-.831,.339-1.627,.937-2.204,16.011-15.432,31.721-29.997,31.721-49.786Z"/><path class="cls-4" d="M36.36,125.303l3.248,.329c6.933,.702,14.014,.715,20.955,.04l3.789-.369"/><line class="cls-4" x1="44.835" y1="180.161" x2="44.835" y2="142.383"/><g><g><polyline class="cls-3" points="41.232 23.275 68.916 35.579 78.144 52.498 79.241 54.036 82.758 49.421"/><polyline class="cls-3" points="18.161 49.421 22.775 54.036 44.308 18.661"/><polyline class="cls-3" points="59.688 49.421 56.612 54.036 38.156 18.661"/><polyline class="cls-3" points="22.775 54.036 56.612 54.036 79.241 54.036"/></g><path class="cls-5" d="M27.929,53.267h0c3.839-3.658,6.994-7.983,9.307-12.754,.169-.349,.33-.678,.48-.977l2.149-4.299c.236-.472,.916-.452,1.124,.033l.988,2.306c1.838,4.29,1.638,6.073,5.961,11.888,1.055,1.419,2.299,2.701,3.683,3.803H27.929Z"/></g></g></g></svg>