<?xml version="1.0" encoding="utf-8"?>
<!-- Generator: Adobe Illustrator 26.3.1, SVG Export Plug-In . SVG Version: 6.00 Build 0)  -->
<svg version="1.1" id="Layer_1" xmlns="http://www.w3.org/2000/svg" xmlns:xlink="http://www.w3.org/1999/xlink" x="0px" y="0px"
	 viewBox="0 0 315.2 390.3" style="enable-background:new 0 0 315.2 390.3;" xml:space="preserve">
<style type="text/css">
	.st0{fill:none;stroke:#120A2D;stroke-width:5;stroke-miterlimit:10;}
	.st1{fill:none;stroke:#120A2D;stroke-width:5;stroke-linecap:round;stroke-miterlimit:10;}
</style>
<g id="c" transform="translate(165.105) rotate(28)">
	<g id="Group_348" transform="translate(2.5 2.5)">
		<path id="Path_321" class="st0" d="M128.3,78.2c21,2.5,34.7,6.7,34.7,11.5c0,7.7-36,13.9-80.5,13.9S2.1,97.4,2.1,89.7
			c0-5.1,15.6-9.5,38.9-11.9"/>
		<path id="Path_322" class="st0" d="M165,79.7C165,35.7,128.1,0,82.5,0S0,35.7,0,79.7c0,34.9,27.7,62.6,56,88.1
			c1.1,1,1.8,2.5,1.8,4l0,166.9c0,4.4,11.1,8,24.8,8s24.8-3.6,24.8-8l0-167.1c0-1.5,0.6-2.9,1.7-3.9C137.3,140.5,165,114.7,165,79.7
			L165,79.7z"/>
		<path id="Path_323" class="st0" d="M57.8,215.6l5.7,1c12.3,2.1,24.8,2.1,37.1,0.1l6.7-1.1"/>
		<line id="Line_335" class="st0" x1="72.8" y1="312.6" x2="72.8" y2="245.8"/>
		<g id="Group_347" transform="translate(25.575 26.967)">
			<g id="Group_346" transform="translate(0 0)">
				<path id="Path_324" class="st1" d="M40.8,8.2l49,21.8l16.3,29.9l1.9,2.7l6.2-8.2"/>
				<path id="Path_325" class="st1" d="M0,54.4l8.2,8.2L46.2,0"/>
				<path id="Path_326" class="st1" d="M73.5,54.4L68,62.6L35.4,0"/>
				<path id="Path_327" class="st1" d="M8.2,62.6l99.9,0"/>
			</g>
			<path id="Path_328" class="st0" d="M17.3,61.2L17.3,61.2c6.8-6.5,12.4-14.1,16.5-22.6c0.3-0.6,0.6-1.2,0.8-1.7l3.8-7.6
				c0.3-0.5,0.9-0.8,1.5-0.5c0.2,0.1,0.4,0.3,0.5,0.5l1.7,4.1c3.3,7.6,2.9,10.7,10.5,21c1.9,2.5,4.1,4.8,6.5,6.7L17.3,61.2z"/>
		</g>
	</g>
</g>
</svg>
